 General
Complete name                    :Honeymooners 2005 Dual Audio [Hin-Eng] by imkhan -=[TDT]=-\The Honeymooners 2005 Dual Audio [Hin-Eng] by imkhan -=[TDT]=-.mkv
Format                           : Matroska
File size                        : 536 MiB
Duration                         : 1h 25mn
Overall bit rate                 : 872 Kbps
Movie name                       : The Honeymooners 2005 Dual Audio [Hin-Eng] by imkhan -=[TDT]=-
Encoded date                     : UTC 2011-09-02 16:09:45
Writing application              : mkvmerge v4.7.0 ('Just Like You Imagined') built on Apr 21 2011 01:13:14
Writing library                  : libebml v1.2.0 + libmatroska v1.1.0

Video
ID                               : 1
Format                           : AVC
Format/Info                      : Advanced Video Codec
Format profile                   : [email="High@L4.0"]High@L4.0[/email]
Format settings, CABAC           : Yes
Format settings, ReFrames        : 3 frames
Muxing mode                      : Container [email="profile=Unknown@4.0"]profile=Unknown@4.0[/email]
Codec ID                         : V_MPEG4/ISO/AVC
Duration                         : 1h 25mn
Bit rate                         : 626 Kbps
Width                            : 808 pixels
Height                           : 364 pixels
Display aspect ratio             : 2.220
Frame rate                       : 25.000 fps
Resolution                       : 24 bits
Colorimetry                      : 4:2:0
Scan type                        : Progressive
Bits/(Pixel*Frame)               : 0.085
Stream size                      : 385 MiB (72%)
Title                            : imkhan
Writing library                  : x264 core 104 r1683 62997d6
nal_hrd=none
Language                         : Hindi

Audio #1
ID                               : 2
Format                           : MPEG Audio
Format version                   : Version 1
Format profile                   : Layer 3
Codec ID                         : A_MPEG/L3
Codec ID/Hint                    : MP3
Duration                         : 1h 25mn
Bit rate mode                    : Constant
Bit rate                         : 96.0 Kbps
Channel(s)                       : 2 channels
Sampling rate                    : 44.1 KHz
Resolution                       : 16 bits
Stream size                      : 59.0 MiB (11%)
Title                            : imkhan
Language                         : Hindi

Audio #2
ID                               : 3
Format                           : MPEG Audio
Format version                   : Version 1
Format profile                   : Layer 3
Codec ID                         : A_MPEG/L3
Codec ID/Hint                    : MP3
Duration                         : 1h 29mn
Bit rate mode                    : Variable
Bit rate                         : 133 Kbps
Minimum bit rate                 : 128 Kbps
Channel(s)                       : 2 channels
Sampling rate                    : 44.1 KHz
Resolution                       : 16 bits
Stream size                      : 85.0 MiB (16%)
Title                            : imkhan
Writing library                  : LAME3.93a


Screens: 
http://s1.postimage.org/uq65o5vyg/The_Honeymooners_2005_Dual_Audio_Hin_Eng_by_imkhan_TDT_1_mkv_001465879.jpg 
http://s1.postimage.org/9gil0us5u/The_Honeymooners_2005_Dual_Audio_Hin_Eng_by_imkhan_TDT_1_mkv_001834519.jpg 
http://s1.postimage.org/nmydjmfiq/The_Honeymooners_2005_Dual_Audio_Hin_Eng_by_imkhan_TDT_1_mkv_002032239.jpg 
http://s1.postimage.org/uq6amrxg2/The_Honeymooners_2005_Dual_Audio_Hin_Eng_by_imkhan_TDT_1_mkv_002033559.jpg 
http://s1.postimage.org/5wws9nqxo/The_Honeymooners_2005_Dual_Audio_Hin_Eng_by_imkhan_TDT_1_mkv_002094039.jpg 
http://s1.postimage.org/k3cmfyqsc/The_Honeymooners_2005_Dual_Audio_Hin_Eng_by_imkhan_TDT_1_mkv_002205399.jpg 
http://s1.postimage.org/r6kjj48po/The_Honeymooners_2005_Dual_Audio_Hin_Eng_by_imkhan_TDT_1_mkv_003059759.jpg 
http://s1.postimage.org/d04xmhzc6/The_Honeymooners_2005_Dual_Audio_Hin_Eng_by_imkhan_TDT_1_mkv_004074279.jpg 
http://s1.postimage.org/k3cupnh9i/The_Honeymooners_2005_Dual_Audio_Hin_Eng_by_imkhan_TDT_1_mkv_004708279.jpg

Sample [also in dual audio] with the torrent
For hindi audio credit goes to : SnowDoN

 ~ Seed 4 others,Others would seed 4 u ~
         Be a Gentleman!!

    ______            ______   _______    
   (  __  \ |\     /|(  __  \ (  ____ \   
   | (  \  )| )   ( || (  \  )| (    \/   
   | |   ) || |   | || |   ) || (__       
   | |   | || |   | || |   | ||  __)      
   | |   ) || |   | || |   ) || (         
 _ | (__/  )| (___) || (__/  )| (____/\ _ 
(_)(______/ (_______)(______/ (_______/(_)


A simple THANKS goes a long way... :-)
Any comments would b appreciated.
